<?xml version="1.0" encoding="utf-8"?>
<!-- Uploaded to: SVG Repo, www.svgrepo.com, Generator: SVG Repo Mixer Tools -->
<svg width="800px" height="800px" viewBox="0 0 24 24" fill="none" xmlns="http://www.w3.org/2000/svg">
<g id="style=fill">
<g id="home-line" clip-path="url(#clip0_1_110)">
<path id="Subtract" fill-rule="evenodd" clip-rule="evenodd" d="M14.3594 2.12613C13.0087 0.944612 10.9923 0.94461 9.64162 2.12612L3.2802 7.69086C2.29508 8.55261 1.72998 9.79772 1.72998 11.1066L1.72998 19.1672C1.72998 21.1459 3.33403 22.75 5.31273 22.75L18.6883 22.75C20.667 22.75 22.271 21.1459 22.271 19.1672L22.271 11.1066C22.271 9.79772 21.706 8.55261 20.7208 7.69086L14.3594 2.12613ZM10 16.1136C9.58579 16.1136 9.25 16.4494 9.25 16.8636C9.25 17.2779 9.58579 17.6136 10 17.6136L14 17.6136C14.4142 17.6136 14.75 17.2779 14.75 16.8636C14.75 16.4494 14.4142 16.1136 14 16.1136L10 16.1136Z" fill="#000000"/>
</g>
</g>
<defs>
<clipPath id="clip0_1_110">
<rect width="21.51" height="20.5411" fill="white" transform="translate(1.72998 22.75) rotate(-90)"/>
</clipPath>
</defs>
</svg>